<svg xmlns="http://www.w3.org/2000/svg" xmlns:xlink="http://www.w3.org/1999/xlink" width="566" zoomAndPan="magnify" viewBox="0 0 424.5 809.999993" height="1080" preserveAspectRatio="xMidYMid meet" version="1.0"><defs><filter x="0%" y="0%" width="100%" height="100%" id="18d7a2da45"><feColorMatrix values="0 0 0 0 1 0 0 0 0 1 0 0 0 0 1 0 0 0 1 0" color-interpolation-filters="sRGB"/></filter><clipPath id="77b9ef23de"><path d="M 0 4 L 424 4 L 424 809.523438 L 0 809.523438 Z M 0 4 " clip-rule="nonzero"/></clipPath><mask id="4deb388414"><g filter="url(#18d7a2da45)"><rect x="-42.45" width="509.4" fill="#000000" y="-80.999999" height="971.999992" fill-opacity="0.45"/></g></mask><clipPath id="0e09d29bc1"><path d="M 0 360 L 333 360 L 333 805.523438 L 0 805.523438 Z M 0 360 " clip-rule="nonzero"/></clipPath><clipPath id="34cc419986"><path d="M 0 0.550781 L 353 0.550781 L 353 584 L 0 584 Z M 0 0.550781 " clip-rule="nonzero"/></clipPath><clipPath id="9429a25620"><path d="M 0 51 L 424 51 L 424 805.523438 L 0 805.523438 Z M 0 51 " clip-rule="nonzero"/></clipPath><clipPath id="bc7b5f2350"><rect x="0" width="424" y="0" height="806"/></clipPath></defs><g clip-path="url(#77b9ef23de)"><g mask="url(#4deb388414)"><g transform="matrix(1, 0, 0, 1, 0, 4)"><g clip-path="url(#bc7b5f2350)"><g clip-path="url(#0e09d29bc1)"><path fill="#33bef2" d="M 319.082031 724.667969 L 238.285156 805.464844 L 0 805.464844 L 0 360.847656 C 11.472656 360.847656 22.945312 365.191406 31.628906 373.960938 L 277.945312 620.277344 L 319.082031 661.410156 C 336.617188 678.863281 336.617188 707.214844 319.082031 724.667969 Z M 319.082031 724.667969 " fill-opacity="1" fill-rule="nonzero"/></g><g clip-path="url(#34cc419986)"><path fill="#99dff9" d="M 339.484375 323.730469 L 305.96875 357.242188 L 92.921875 570.292969 C 75.386719 587.746094 47.117188 587.746094 29.582031 570.292969 L 0 540.710938 L 0 43.40625 L 29.582031 13.828125 C 47.117188 -3.628906 75.386719 -3.628906 92.921875 13.828125 L 339.484375 260.386719 C 356.9375 277.925781 356.9375 306.195312 339.484375 323.730469 Z M 339.484375 323.730469 " fill-opacity="1" fill-rule="nonzero"/></g><g clip-path="url(#9429a25620)"><path fill="#4350a2" d="M 423.472656 474.746094 L 261.148438 637.074219 L 92.757812 805.464844 L 58.015625 805.464844 L 243.777344 619.703125 L 388.730469 474.746094 L 288.597656 374.613281 L 0 86.097656 L 0 51.273438 Z M 423.472656 474.746094 " fill-opacity="1" fill-rule="nonzero"/></g></g></g></g></g></svg>