<svg xmlns="http://www.w3.org/2000/svg" xmlns:xlink="http://www.w3.org/1999/xlink" width="566" zoomAndPan="magnify" viewBox="0 0 424.5 809.999993" height="1080" preserveAspectRatio="xMidYMid meet" version="1.0"><defs><clipPath id="9cab48c731"><path d="M 0 0.476562 L 424 0.476562 L 424 809.523438 L 0 809.523438 Z M 0 0.476562 " clip-rule="nonzero"/></clipPath><clipPath id="ef9939b229"><path d="M 0 364 L 333 364 L 333 809.523438 L 0 809.523438 Z M 0 364 " clip-rule="nonzero"/></clipPath><clipPath id="e4e1771c42"><path d="M 0 55 L 424 55 L 424 809.523438 L 0 809.523438 Z M 0 55 " clip-rule="nonzero"/></clipPath><clipPath id="854b5dc6c3"><path d="M 0 364 L 333 364 L 333 809.523438 L 0 809.523438 Z M 0 364 " clip-rule="nonzero"/></clipPath><clipPath id="296aebb1dc"><path d="M 0 55 L 424 55 L 424 809.523438 L 0 809.523438 Z M 0 55 " clip-rule="nonzero"/></clipPath></defs><g clip-path="url(#9cab48c731)"><path fill="#ffffff" d="M 0 0.476562 L 424 0.476562 L 424 809.523438 L 0 809.523438 Z M 0 0.476562 " fill-opacity="1" fill-rule="nonzero"/></g><g clip-path="url(#ef9939b229)"><path fill="#33bef2" d="M 319.082031 728.667969 L 238.285156 809.464844 L 0 809.464844 L 0 364.847656 C 11.472656 364.847656 22.945312 369.191406 31.628906 377.960938 L 277.945312 624.277344 L 319.082031 665.410156 C 336.617188 682.863281 336.617188 711.214844 319.082031 728.667969 Z M 319.082031 728.667969 " fill-opacity="1" fill-rule="nonzero"/></g><path fill="#99dff9" d="M 339.484375 327.730469 L 305.96875 361.242188 L 92.921875 574.292969 C 75.386719 591.746094 47.117188 591.746094 29.582031 574.292969 L 0 544.710938 L 0 47.40625 L 29.582031 17.828125 C 47.117188 0.371094 75.386719 0.371094 92.921875 17.828125 L 339.484375 264.386719 C 356.9375 281.925781 356.9375 310.195312 339.484375 327.730469 Z M 339.484375 327.730469 " fill-opacity="1" fill-rule="nonzero"/><g clip-path="url(#e4e1771c42)"><path fill="#4350a2" d="M 423.472656 478.746094 L 261.148438 641.074219 L 92.757812 809.464844 L 58.015625 809.464844 L 243.777344 623.703125 L 388.730469 478.746094 L 288.597656 378.613281 L 0 90.097656 L 0 55.273438 Z M 423.472656 478.746094 " fill-opacity="1" fill-rule="nonzero"/></g><g clip-path="url(#854b5dc6c3)"><path fill="#33bef2" d="M 319.082031 728.667969 L 238.285156 809.464844 L 0 809.464844 L 0 364.847656 C 11.472656 364.847656 22.945312 369.191406 31.628906 377.960938 L 277.945312 624.277344 L 319.082031 665.410156 C 336.617188 682.863281 336.617188 711.214844 319.082031 728.667969 Z M 319.082031 728.667969 " fill-opacity="1" fill-rule="nonzero"/></g><path fill="#99dff9" d="M 339.484375 327.730469 L 305.96875 361.242188 L 92.921875 574.292969 C 75.386719 591.746094 47.117188 591.746094 29.582031 574.292969 L 0 544.710938 L 0 47.40625 L 29.582031 17.828125 C 47.117188 0.371094 75.386719 0.371094 92.921875 17.828125 L 339.484375 264.386719 C 356.9375 281.925781 356.9375 310.195312 339.484375 327.730469 Z M 339.484375 327.730469 " fill-opacity="1" fill-rule="nonzero"/><g clip-path="url(#296aebb1dc)"><path fill="#4350a2" d="M 423.472656 478.746094 L 261.148438 641.074219 L 92.757812 809.464844 L 58.015625 809.464844 L 243.777344 623.703125 L 388.730469 478.746094 L 288.597656 378.613281 L 0 90.097656 L 0 55.273438 Z M 423.472656 478.746094 " fill-opacity="1" fill-rule="nonzero"/></g></svg>